# xmcd
#
# Track frame offsets:
#	150
#	13634
#	28327
#	42286
#	55953
#	69531
#	82385
#	96803
#	110108
#	123202
#	134919
#	145053
#	159139
#	171598
#	188189
#	198887
#	212669
#	225852
#	239636
#	251590
#	264120
#	278217
#	292862
#	306141
#	317739
#
# Disc length: 4396 seconds
# Revision: 0
# Processed by: cddbd v1.5.2PL0 Copyright (c) Steve Scherf et al.
# Submitted via: dBpowerAMP V12.0
#
DISCID=70112a19
DTITLE=Various Artist - The Complete History Of The Blues (1920-1962), Disc 4
DYEAR=2015
DGENRE=Blues
TTITLE0=B. B. King - 3 O'Clock Blues
TTITLE1=Eddie Boyd - Third Degree
TTITLE2=Junior Wells - Hoodoo Man
TTITLE3=Guitar Slim - The Things That I Used To Do
TTITLE4=James Cotton - Cotton Crop Blues
TTITLE5=Jimmy Witherspoon - When The Lights Go Out
TTITLE6=Lowell Fulson - Reconsider Baby
TTITLE7=Muddy Waters - Mannish Boy
TTITLE8=Willie Mabon - The Seventh Son
TTITLE9=Sonny Boy Williamson II - Don't Start Me To Talking
TTITLE10=Billy Boy Arnold - I Ain't Got You
TTITLE11=Howlin' Wolf - Smokestack Lightnin'
TTITLE12=Snooky Pryor - Judgment Day
TTITLE13=Otis Rush - I Can't Quit You Baby
TTITLE14=Sunnyland Slim - It's You Baby
TTITLE15=Slim Harpo - I'm A King Bee
TTITLE16=Magic Sam - All Your Love
TTITLE17=Buddy Guy - Sit And Cry (The Blues)
TTITLE18=Bobby "Blue" Bland - Little Boy Blue
TTITLE19=Jimmy Reed - Big Boss Man
TTITLE20=Etta James - I Just Want To Make Love To You
TTITLE21=Freddie King - You've Got To Love Her With A Feeling
TTITLE22=Albert King - Don't Throw Your Love On Me So Strong
TTITLE23=Frank Frost - Jelly Roll King
TTITLE24=Johnny Copeland - Down On Bending Knees
EXTD=
EXTT0=
EXTT1=
EXTT2=
EXTT3=
EXTT4=
EXTT5=
EXTT6=
EXTT7=
EXTT8=
EXTT9=
EXTT10=
EXTT11=
EXTT12=
EXTT13=
EXTT14=
EXTT15=
EXTT16=
EXTT17=
EXTT18=
EXTT19=
EXTT20=
EXTT21=
EXTT22=
EXTT23=
EXTT24=
PLAYORDER=
